<svg xmlns="http://www.w3.org/2000/svg" width="1400" height="1400" viewBox="0 0 1400 1400">
<defs><radialGradient id="bs"><stop offset="0" stop-color="#ffffff" stop-opacity="1"/><stop offset="1" stop-color="#ffffff" stop-opacity="0"/></radialGradient></defs>
<circle cx="633.3" cy="783.7" r="0.80" fill="#cfe0ff" opacity="0.37"/>
<circle cx="258.5" cy="716.7" r="1.00" fill="#e6edf3" opacity="0.51"/>
<circle cx="625.2" cy="198.5" r="1.00" fill="#e6edf3" opacity="0.52"/>
<circle cx="833.6" cy="554.6" r="0.80" fill="#cfe0ff" opacity="0.45"/>
<circle cx="872.4" cy="1164.4" r="0.40" fill="#cfe0ff" opacity="0.21"/>
<circle cx="1231.4" cy="839.5" r="0.80" fill="#cfe0ff" opacity="0.32"/>
<circle cx="726.8" cy="896.4" r="0.80" fill="#e6edf3" opacity="0.18"/>
<circle cx="640.3" cy="389.4" r="1.00" fill="#e6edf3" opacity="0.60"/>
<circle cx="990.9" cy="441.4" r="0.50" fill="#e6edf3" opacity="0.40"/>
<circle cx="98.3" cy="1072.8" r="0.80" fill="#fff0d8" opacity="0.23"/>
<circle cx="541.1" cy="1341.3" r="0.40" fill="#e6edf3" opacity="0.27"/>
<circle cx="658.0" cy="1372.5" r="0.80" fill="#cfe0ff" opacity="0.36"/>
<circle cx="1089.9" cy="377.7" r="0.40" fill="#e6edf3" opacity="0.31"/>
<circle cx="1349.7" cy="1061.3" r="0.40" fill="#e6edf3" opacity="0.24"/>
<circle cx="15.3" cy="650.9" r="0.80" fill="#cfe0ff" opacity="0.25"/>
<circle cx="626.4" cy="267.0" r="0.50" fill="#dfe7f5" opacity="0.36"/>
<circle cx="163.1" cy="589.1" r="0.50" fill="#fff0d8" opacity="0.18"/>
<circle cx="1397.1" cy="27.5" r="0.50" fill="#e6edf3" opacity="0.35"/>
<circle cx="59.0" cy="204.9" r="0.80" fill="#fff0d8" opacity="0.29"/>
<circle cx="1162.4" cy="540.6" r="0.40" fill="#cfe0ff" opacity="0.22"/>
<circle cx="21.7" cy="516.1" r="1.00" fill="#dfe7f5" opacity="0.37"/>
<circle cx="1165.3" cy="190.0" r="0.80" fill="#cfe0ff" opacity="0.26"/>
<circle cx="435.1" cy="319.7" r="1.00" fill="#cfe0ff" opacity="0.28"/>
<circle cx="221.9" cy="880.6" r="1.00" fill="#dfe7f5" opacity="0.26"/>
<circle cx="1235.1" cy="844.9" r="0.80" fill="#e6edf3" opacity="0.20"/>
<circle cx="54.2" cy="1347.8" r="0.50" fill="#dfe7f5" opacity="0.49"/>
<circle cx="359.8" cy="1153.2" r="1.00" fill="#cfe0ff" opacity="0.39"/>
<circle cx="1300.9" cy="1368.0" r="0.50" fill="#e6edf3" opacity="0.28"/>
<circle cx="392.3" cy="1284.3" r="0.50" fill="#e6edf3" opacity="0.49"/>
<circle cx="376.9" cy="624.0" r="0.40" fill="#fff0d8" opacity="0.20"/>
<circle cx="516.3" cy="801.0" r="0.50" fill="#cfe0ff" opacity="0.22"/>
<circle cx="1247.3" cy="1372.7" r="1.00" fill="#cfe0ff" opacity="0.43"/>
<circle cx="825.8" cy="1293.0" r="0.80" fill="#fff0d8" opacity="0.56"/>
<circle cx="1347.9" cy="29.8" r="0.40" fill="#fff0d8" opacity="0.38"/>
<circle cx="446.5" cy="1399.1" r="0.40" fill="#fff0d8" opacity="0.37"/>
<circle cx="1031.8" cy="1260.3" r="0.50" fill="#fff0d8" opacity="0.51"/>
<circle cx="492.6" cy="959.2" r="0.40" fill="#dfe7f5" opacity="0.55"/>
<circle cx="1321.9" cy="42.4" r="0.80" fill="#dfe7f5" opacity="0.42"/>
<circle cx="530.8" cy="17.4" r="0.40" fill="#e6edf3" opacity="0.21"/>
<circle cx="1390.7" cy="1231.7" r="0.60" fill="#dfe7f5" opacity="0.34"/>
<circle cx="616.7" cy="1173.7" r="0.40" fill="#e6edf3" opacity="0.40"/>
<circle cx="434.3" cy="122.8" r="0.40" fill="#e6edf3" opacity="0.28"/>
<circle cx="696.2" cy="860.3" r="0.80" fill="#e6edf3" opacity="0.29"/>
<circle cx="515.1" cy="200.5" r="1.00" fill="#cfe0ff" opacity="0.27"/>
<circle cx="1055.3" cy="479.5" r="0.80" fill="#cfe0ff" opacity="0.39"/>
<circle cx="457.7" cy="932.3" r="0.50" fill="#cfe0ff" opacity="0.45"/>
<circle cx="1232.4" cy="538.2" r="1.00" fill="#cfe0ff" opacity="0.57"/>
<circle cx="190.6" cy="695.1" r="0.40" fill="#fff0d8" opacity="0.48"/>
<circle cx="1150.6" cy="158.0" r="0.80" fill="#cfe0ff" opacity="0.30"/>
<circle cx="1163.3" cy="535.6" r="1.00" fill="#fff0d8" opacity="0.39"/>
<circle cx="1002.8" cy="1178.7" r="1.00" fill="#e6edf3" opacity="0.37"/>
<circle cx="1160.2" cy="389.4" r="1.00" fill="#fff0d8" opacity="0.20"/>
<circle cx="798.8" cy="432.6" r="1.00" fill="#cfe0ff" opacity="0.19"/>
<circle cx="567.3" cy="265.9" r="0.60" fill="#cfe0ff" opacity="0.28"/>
<circle cx="1115.6" cy="1377.6" r="0.40" fill="#fff0d8" opacity="0.37"/>
<circle cx="1341.8" cy="958.3" r="0.50" fill="#fff0d8" opacity="0.53"/>
<circle cx="250.2" cy="15.1" r="0.80" fill="#e6edf3" opacity="0.40"/>
<circle cx="250.7" cy="381.3" r="0.60" fill="#cfe0ff" opacity="0.41"/>
<circle cx="550.9" cy="1108.7" r="0.50" fill="#dfe7f5" opacity="0.22"/>
<circle cx="181.9" cy="635.0" r="0.40" fill="#fff0d8" opacity="0.34"/>
<circle cx="649.2" cy="911.9" r="0.50" fill="#e6edf3" opacity="0.22"/>
<circle cx="298.6" cy="1260.0" r="0.40" fill="#fff0d8" opacity="0.59"/>
<circle cx="366.6" cy="1005.6" r="0.40" fill="#e6edf3" opacity="0.33"/>
<circle cx="52.0" cy="478.9" r="0.80" fill="#dfe7f5" opacity="0.50"/>
<circle cx="1287.7" cy="305.6" r="0.40" fill="#e6edf3" opacity="0.36"/>
<circle cx="242.1" cy="469.0" r="0.50" fill="#dfe7f5" opacity="0.38"/>
<circle cx="1324.0" cy="689.6" r="0.40" fill="#dfe7f5" opacity="0.50"/>
<circle cx="737.3" cy="406.2" r="1.00" fill="#fff0d8" opacity="0.45"/>
<circle cx="436.4" cy="533.7" r="1.00" fill="#cfe0ff" opacity="0.27"/>
<circle cx="1355.8" cy="733.9" r="1.00" fill="#dfe7f5" opacity="0.39"/>
<circle cx="750.3" cy="704.4" r="1.00" fill="#e6edf3" opacity="0.34"/>
<circle cx="722.4" cy="560.8" r="1.00" fill="#e6edf3" opacity="0.23"/>
<circle cx="967.4" cy="92.3" r="1.00" fill="#dfe7f5" opacity="0.37"/>
<circle cx="376.9" cy="662.4" r="0.50" fill="#dfe7f5" opacity="0.32"/>
<circle cx="735.0" cy="152.1" r="0.80" fill="#fff0d8" opacity="0.44"/>
<circle cx="181.2" cy="1091.0" r="0.40" fill="#cfe0ff" opacity="0.19"/>
<circle cx="318.2" cy="961.8" r="0.60" fill="#cfe0ff" opacity="0.48"/>
<circle cx="867.7" cy="146.8" r="1.00" fill="#fff0d8" opacity="0.23"/>
<circle cx="1004.8" cy="981.9" r="0.80" fill="#dfe7f5" opacity="0.19"/>
<circle cx="1155.3" cy="862.1" r="1.00" fill="#cfe0ff" opacity="0.27"/>
<circle cx="741.5" cy="1191.8" r="1.00" fill="#cfe0ff" opacity="0.43"/>
<circle cx="325.7" cy="1037.1" r="0.60" fill="#fff0d8" opacity="0.56"/>
<circle cx="844.4" cy="1246.9" r="0.50" fill="#cfe0ff" opacity="0.27"/>
<circle cx="1242.6" cy="187.5" r="0.50" fill="#e6edf3" opacity="0.24"/>
<circle cx="363.3" cy="135.8" r="0.80" fill="#cfe0ff" opacity="0.41"/>
<circle cx="280.9" cy="879.2" r="0.40" fill="#fff0d8" opacity="0.22"/>
<circle cx="1275.9" cy="1355.7" r="0.40" fill="#fff0d8" opacity="0.48"/>
<circle cx="703.9" cy="960.0" r="0.50" fill="#dfe7f5" opacity="0.52"/>
<circle cx="148.6" cy="52.4" r="1.00" fill="#dfe7f5" opacity="0.44"/>
<circle cx="205.2" cy="258.4" r="0.50" fill="#cfe0ff" opacity="0.25"/>
<circle cx="1386.4" cy="1297.6" r="0.40" fill="#cfe0ff" opacity="0.42"/>
<circle cx="1332.1" cy="646.9" r="0.40" fill="#dfe7f5" opacity="0.32"/>
<circle cx="597.0" cy="496.4" r="0.50" fill="#e6edf3" opacity="0.43"/>
<circle cx="887.6" cy="57.2" r="0.50" fill="#dfe7f5" opacity="0.26"/>
<circle cx="503.4" cy="518.3" r="0.50" fill="#e6edf3" opacity="0.43"/>
<circle cx="717.6" cy="21.6" r="0.40" fill="#dfe7f5" opacity="0.52"/>
<circle cx="797.6" cy="267.3" r="1.00" fill="#fff0d8" opacity="0.59"/>
<circle cx="391.3" cy="162.8" r="0.50" fill="#dfe7f5" opacity="0.52"/>
<circle cx="186.5" cy="461.9" r="1.00" fill="#dfe7f5" opacity="0.47"/>
<circle cx="1071.3" cy="568.0" r="0.50" fill="#fff0d8" opacity="0.21"/>
<circle cx="422.4" cy="141.2" r="0.60" fill="#e6edf3" opacity="0.60"/>
<circle cx="325.0" cy="1322.5" r="0.60" fill="#dfe7f5" opacity="0.32"/>
<circle cx="797.4" cy="746.3" r="0.80" fill="#dfe7f5" opacity="0.40"/>
<circle cx="899.2" cy="981.8" r="0.80" fill="#e6edf3" opacity="0.59"/>
<circle cx="160.7" cy="151.3" r="0.50" fill="#dfe7f5" opacity="0.29"/>
<circle cx="706.7" cy="1065.8" r="0.80" fill="#fff0d8" opacity="0.18"/>
<circle cx="351.2" cy="1267.9" r="1.00" fill="#dfe7f5" opacity="0.41"/>
<circle cx="1354.0" cy="795.2" r="0.40" fill="#e6edf3" opacity="0.45"/>
<circle cx="769.2" cy="935.8" r="0.40" fill="#cfe0ff" opacity="0.34"/>
<circle cx="540.3" cy="1358.1" r="0.80" fill="#e6edf3" opacity="0.41"/>
<circle cx="601.4" cy="692.3" r="0.60" fill="#fff0d8" opacity="0.40"/>
<circle cx="511.8" cy="400.1" r="0.60" fill="#fff0d8" opacity="0.42"/>
<circle cx="929.0" cy="1046.8" r="0.40" fill="#cfe0ff" opacity="0.19"/>
<circle cx="820.1" cy="886.2" r="0.80" fill="#dfe7f5" opacity="0.50"/>
<circle cx="73.9" cy="441.2" r="0.80" fill="#fff0d8" opacity="0.20"/>
<circle cx="102.9" cy="1267.8" r="0.80" fill="#fff0d8" opacity="0.48"/>
<circle cx="1362.4" cy="341.2" r="1.00" fill="#dfe7f5" opacity="0.22"/>
<circle cx="202.1" cy="1343.9" r="0.50" fill="#e6edf3" opacity="0.43"/>
<circle cx="70.6" cy="584.0" r="0.40" fill="#e6edf3" opacity="0.27"/>
<circle cx="499.4" cy="216.6" r="0.60" fill="#dfe7f5" opacity="0.37"/>
<circle cx="637.8" cy="367.0" r="1.00" fill="#fff0d8" opacity="0.47"/>
<circle cx="1089.2" cy="743.1" r="0.50" fill="#cfe0ff" opacity="0.58"/>
<circle cx="333.8" cy="159.4" r="0.60" fill="#fff0d8" opacity="0.51"/>
<circle cx="384.7" cy="853.7" r="1.00" fill="#cfe0ff" opacity="0.47"/>
<circle cx="886.3" cy="1054.7" r="0.50" fill="#cfe0ff" opacity="0.58"/>
<circle cx="1230.3" cy="55.3" r="0.40" fill="#fff0d8" opacity="0.18"/>
<circle cx="595.3" cy="872.7" r="0.40" fill="#fff0d8" opacity="0.27"/>
<circle cx="101.5" cy="121.0" r="0.50" fill="#fff0d8" opacity="0.41"/>
<circle cx="677.6" cy="495.7" r="0.60" fill="#cfe0ff" opacity="0.32"/>
<circle cx="1174.0" cy="104.1" r="0.40" fill="#cfe0ff" opacity="0.37"/>
<circle cx="622.1" cy="1046.2" r="0.80" fill="#fff0d8" opacity="0.52"/>
<circle cx="214.9" cy="1170.9" r="1.00" fill="#cfe0ff" opacity="0.32"/>
<circle cx="598.7" cy="517.0" r="0.40" fill="#fff0d8" opacity="0.37"/>
<circle cx="109.9" cy="116.2" r="1.00" fill="#dfe7f5" opacity="0.42"/>
<circle cx="418.4" cy="1085.7" r="0.40" fill="#e6edf3" opacity="0.31"/>
<circle cx="973.1" cy="692.7" r="0.60" fill="#cfe0ff" opacity="0.30"/>
<circle cx="306.3" cy="920.2" r="0.60" fill="#e6edf3" opacity="0.33"/>
<circle cx="451.4" cy="617.4" r="1.00" fill="#fff0d8" opacity="0.57"/>
<circle cx="613.2" cy="1124.3" r="0.60" fill="#cfe0ff" opacity="0.37"/>
<circle cx="559.4" cy="1308.5" r="1.00" fill="#fff0d8" opacity="0.28"/>
<circle cx="1159.9" cy="33.8" r="0.80" fill="#cfe0ff" opacity="0.43"/>
<circle cx="1034.4" cy="515.5" r="0.80" fill="#cfe0ff" opacity="0.41"/>
<circle cx="247.2" cy="1062.5" r="0.60" fill="#cfe0ff" opacity="0.52"/>
<circle cx="721.9" cy="761.8" r="1.00" fill="#e6edf3" opacity="0.30"/>
<circle cx="911.7" cy="1126.0" r="0.40" fill="#fff0d8" opacity="0.42"/>
<circle cx="1103.3" cy="117.7" r="0.40" fill="#e6edf3" opacity="0.29"/>
<circle cx="1258.7" cy="118.6" r="0.50" fill="#dfe7f5" opacity="0.22"/>
<circle cx="343.6" cy="308.6" r="1.00" fill="#dfe7f5" opacity="0.32"/>
<circle cx="552.1" cy="472.9" r="0.60" fill="#dfe7f5" opacity="0.46"/>
<circle cx="683.3" cy="1126.7" r="0.40" fill="#e6edf3" opacity="0.48"/>
<circle cx="574.8" cy="1156.7" r="0.60" fill="#dfe7f5" opacity="0.54"/>
<circle cx="1167.4" cy="1244.1" r="1.00" fill="#fff0d8" opacity="0.45"/>
<circle cx="994.1" cy="1123.2" r="0.80" fill="#cfe0ff" opacity="0.57"/>
<circle cx="344.0" cy="227.2" r="0.80" fill="#fff0d8" opacity="0.47"/>
<circle cx="286.1" cy="594.9" r="0.60" fill="#e6edf3" opacity="0.30"/>
<circle cx="660.0" cy="1023.1" r="0.60" fill="#cfe0ff" opacity="0.45"/>
<circle cx="1277.1" cy="1054.4" r="0.40" fill="#e6edf3" opacity="0.43"/>
<circle cx="437.6" cy="276.7" r="0.60" fill="#cfe0ff" opacity="0.27"/>
<circle cx="840.0" cy="660.7" r="1.00" fill="#cfe0ff" opacity="0.27"/>
<circle cx="1252.3" cy="563.5" r="0.60" fill="#dfe7f5" opacity="0.44"/>
<circle cx="1194.7" cy="678.7" r="0.80" fill="#fff0d8" opacity="0.56"/>
<circle cx="924.4" cy="1080.4" r="0.40" fill="#cfe0ff" opacity="0.38"/>
<circle cx="559.2" cy="304.4" r="0.50" fill="#dfe7f5" opacity="0.52"/>
<circle cx="1366.4" cy="1112.6" r="0.60" fill="#e6edf3" opacity="0.51"/>
<circle cx="920.6" cy="332.7" r="0.40" fill="#fff0d8" opacity="0.55"/>
<circle cx="630.0" cy="345.2" r="0.80" fill="#cfe0ff" opacity="0.43"/>
<circle cx="582.1" cy="1080.7" r="0.50" fill="#cfe0ff" opacity="0.29"/>
<circle cx="891.8" cy="1390.4" r="0.60" fill="#e6edf3" opacity="0.40"/>
<circle cx="210.9" cy="1078.5" r="0.40" fill="#cfe0ff" opacity="0.27"/>
<circle cx="1150.9" cy="115.4" r="0.60" fill="#e6edf3" opacity="0.44"/>
<circle cx="1245.5" cy="971.2" r="0.40" fill="#fff0d8" opacity="0.58"/>
<circle cx="26.6" cy="262.9" r="0.50" fill="#e6edf3" opacity="0.57"/>
<circle cx="1094.0" cy="616.3" r="0.40" fill="#dfe7f5" opacity="0.41"/>
<circle cx="220.6" cy="1164.8" r="0.60" fill="#dfe7f5" opacity="0.31"/>
<circle cx="106.4" cy="428.0" r="0.80" fill="#e6edf3" opacity="0.46"/>
<circle cx="503.6" cy="961.9" r="0.40" fill="#dfe7f5" opacity="0.46"/>
<circle cx="1045.3" cy="1098.2" r="0.40" fill="#e6edf3" opacity="0.45"/>
<circle cx="1209.2" cy="996.5" r="0.80" fill="#e6edf3" opacity="0.28"/>
<circle cx="641.3" cy="14.7" r="0.50" fill="#cfe0ff" opacity="0.56"/>
<circle cx="406.6" cy="526.4" r="1.00" fill="#fff0d8" opacity="0.49"/>
<circle cx="1056.9" cy="777.8" r="0.40" fill="#cfe0ff" opacity="0.29"/>
<circle cx="527.2" cy="153.4" r="0.60" fill="#dfe7f5" opacity="0.58"/>
<circle cx="1013.3" cy="464.3" r="0.80" fill="#cfe0ff" opacity="0.22"/>
<circle cx="870.4" cy="184.0" r="0.50" fill="#dfe7f5" opacity="0.26"/>
<circle cx="51.1" cy="648.4" r="0.40" fill="#e6edf3" opacity="0.22"/>
<circle cx="219.9" cy="173.8" r="0.80" fill="#fff0d8" opacity="0.50"/>
<circle cx="1288.9" cy="597.8" r="1.00" fill="#cfe0ff" opacity="0.24"/>
<circle cx="1073.6" cy="1149.6" r="0.80" fill="#dfe7f5" opacity="0.38"/>
<circle cx="872.2" cy="1017.7" r="1.00" fill="#cfe0ff" opacity="0.47"/>
<circle cx="924.3" cy="852.0" r="0.40" fill="#cfe0ff" opacity="0.29"/>
<circle cx="479.1" cy="911.0" r="0.40" fill="#cfe0ff" opacity="0.41"/>
<circle cx="713.1" cy="1104.0" r="0.40" fill="#cfe0ff" opacity="0.44"/>
<circle cx="355.4" cy="754.4" r="0.60" fill="#fff0d8" opacity="0.41"/>
<circle cx="856.8" cy="718.8" r="1.00" fill="#cfe0ff" opacity="0.48"/>
<circle cx="794.3" cy="37.4" r="0.50" fill="#cfe0ff" opacity="0.51"/>
<circle cx="342.4" cy="807.1" r="0.60" fill="#fff0d8" opacity="0.32"/>
<circle cx="372.6" cy="1236.2" r="0.80" fill="#cfe0ff" opacity="0.59"/>
<circle cx="334.1" cy="797.1" r="1.00" fill="#fff0d8" opacity="0.42"/>
<circle cx="235.9" cy="1044.0" r="0.60" fill="#e6edf3" opacity="0.43"/>
<circle cx="1307.6" cy="5.3" r="0.60" fill="#fff0d8" opacity="0.28"/>
<circle cx="1163.1" cy="259.8" r="1.00" fill="#dfe7f5" opacity="0.52"/>
<circle cx="44.8" cy="252.1" r="0.50" fill="#dfe7f5" opacity="0.31"/>
<circle cx="861.3" cy="896.5" r="0.40" fill="#dfe7f5" opacity="0.25"/>
<circle cx="655.2" cy="200.2" r="0.80" fill="#dfe7f5" opacity="0.23"/>
<circle cx="243.2" cy="727.7" r="0.60" fill="#fff0d8" opacity="0.28"/>
<circle cx="74.9" cy="1097.6" r="0.50" fill="#dfe7f5" opacity="0.35"/>
<circle cx="840.1" cy="657.9" r="0.80" fill="#dfe7f5" opacity="0.56"/>
<circle cx="1052.4" cy="680.1" r="0.80" fill="#dfe7f5" opacity="0.53"/>
<circle cx="1155.2" cy="164.3" r="0.40" fill="#fff0d8" opacity="0.56"/>
<circle cx="735.0" cy="605.1" r="0.40" fill="#e6edf3" opacity="0.31"/>
<circle cx="414.5" cy="862.7" r="0.80" fill="#fff0d8" opacity="0.49"/>
<circle cx="1052.6" cy="426.7" r="1.00" fill="#cfe0ff" opacity="0.55"/>
<circle cx="174.2" cy="625.7" r="1.00" fill="#e6edf3" opacity="0.55"/>
<circle cx="666.0" cy="147.5" r="0.50" fill="#dfe7f5" opacity="0.41"/>
<circle cx="1316.3" cy="1231.7" r="0.60" fill="#dfe7f5" opacity="0.54"/>
<circle cx="789.5" cy="229.8" r="0.80" fill="#e6edf3" opacity="0.42"/>
<circle cx="138.0" cy="1109.3" r="0.40" fill="#dfe7f5" opacity="0.55"/>
<circle cx="0.8" cy="341.5" r="0.60" fill="#cfe0ff" opacity="0.19"/>
<circle cx="87.7" cy="1253.2" r="1.00" fill="#fff0d8" opacity="0.35"/>
<circle cx="969.2" cy="323.1" r="0.60" fill="#fff0d8" opacity="0.19"/>
<circle cx="431.0" cy="697.8" r="0.80" fill="#cfe0ff" opacity="0.55"/>
<circle cx="413.5" cy="1291.7" r="0.40" fill="#fff0d8" opacity="0.26"/>
<circle cx="1259.1" cy="22.5" r="1.00" fill="#cfe0ff" opacity="0.26"/>
<circle cx="268.1" cy="1232.2" r="0.40" fill="#fff0d8" opacity="0.45"/>
<circle cx="1016.1" cy="438.2" r="0.60" fill="#cfe0ff" opacity="0.55"/>
<circle cx="468.9" cy="1339.7" r="0.80" fill="#cfe0ff" opacity="0.35"/>
<circle cx="312.5" cy="430.0" r="0.50" fill="#cfe0ff" opacity="0.29"/>
<circle cx="702.0" cy="413.6" r="0.60" fill="#e6edf3" opacity="0.34"/>
<circle cx="825.9" cy="320.6" r="0.60" fill="#cfe0ff" opacity="0.56"/>
<circle cx="933.8" cy="387.6" r="0.40" fill="#e6edf3" opacity="0.37"/>
<circle cx="616.5" cy="739.6" r="1.00" fill="#e6edf3" opacity="0.56"/>
<circle cx="839.6" cy="398.4" r="0.60" fill="#e6edf3" opacity="0.36"/>
<circle cx="230.3" cy="1383.7" r="0.50" fill="#fff0d8" opacity="0.28"/>
<circle cx="1027.9" cy="40.4" r="0.50" fill="#e6edf3" opacity="0.59"/>
<circle cx="870.7" cy="1283.0" r="1.00" fill="#dfe7f5" opacity="0.34"/>
<circle cx="84.3" cy="89.6" r="0.60" fill="#dfe7f5" opacity="0.31"/>
<circle cx="1096.2" cy="723.4" r="1.00" fill="#cfe0ff" opacity="0.53"/>
<circle cx="831.4" cy="1079.7" r="0.40" fill="#cfe0ff" opacity="0.44"/>
<circle cx="935.8" cy="767.0" r="0.60" fill="#cfe0ff" opacity="0.51"/>
<circle cx="363.6" cy="761.8" r="1.00" fill="#fff0d8" opacity="0.43"/>
<circle cx="49.5" cy="835.6" r="0.40" fill="#cfe0ff" opacity="0.42"/>
<circle cx="455.1" cy="851.6" r="1.00" fill="#dfe7f5" opacity="0.39"/>
<circle cx="705.2" cy="1012.4" r="0.40" fill="#cfe0ff" opacity="0.21"/>
<circle cx="796.5" cy="760.5" r="0.50" fill="#e6edf3" opacity="0.44"/>
<circle cx="435.4" cy="59.2" r="0.60" fill="#fff0d8" opacity="0.52"/>
<circle cx="1071.4" cy="697.7" r="1.00" fill="#fff0d8" opacity="0.25"/>
<circle cx="347.4" cy="695.6" r="1.00" fill="#e6edf3" opacity="0.51"/>
<circle cx="442.1" cy="653.6" r="0.50" fill="#e6edf3" opacity="0.48"/>
<circle cx="179.8" cy="1057.6" r="1.00" fill="#cfe0ff" opacity="0.59"/>
<circle cx="1042.4" cy="730.4" r="0.40" fill="#dfe7f5" opacity="0.18"/>
<circle cx="1246.1" cy="198.2" r="0.80" fill="#dfe7f5" opacity="0.41"/>
<circle cx="594.2" cy="107.1" r="0.40" fill="#cfe0ff" opacity="0.47"/>
<circle cx="414.0" cy="166.4" r="0.50" fill="#e6edf3" opacity="0.36"/>
<circle cx="1305.4" cy="509.6" r="0.60" fill="#cfe0ff" opacity="0.58"/>
<circle cx="55.5" cy="564.3" r="0.40" fill="#cfe0ff" opacity="0.49"/>
<circle cx="647.6" cy="550.1" r="0.50" fill="#e6edf3" opacity="0.34"/>
<circle cx="301.5" cy="486.4" r="0.50" fill="#cfe0ff" opacity="0.51"/>
<circle cx="672.3" cy="560.3" r="1.00" fill="#fff0d8" opacity="0.38"/>
<circle cx="661.6" cy="686.3" r="0.50" fill="#cfe0ff" opacity="0.54"/>
<circle cx="756.5" cy="586.8" r="0.40" fill="#fff0d8" opacity="0.47"/>
<circle cx="1328.2" cy="869.4" r="1.00" fill="#fff0d8" opacity="0.26"/>
<circle cx="717.0" cy="794.3" r="0.50" fill="#fff0d8" opacity="0.29"/>
<circle cx="80.1" cy="1019.3" r="0.60" fill="#cfe0ff" opacity="0.24"/>
<circle cx="1012.8" cy="1269.9" r="0.40" fill="#dfe7f5" opacity="0.60"/>
<circle cx="629.9" cy="1196.4" r="0.80" fill="#e6edf3" opacity="0.32"/>
<circle cx="423.1" cy="851.1" r="0.80" fill="#cfe0ff" opacity="0.20"/>
<circle cx="719.5" cy="178.7" r="0.50" fill="#dfe7f5" opacity="0.31"/>
<circle cx="670.1" cy="971.6" r="1.00" fill="#fff0d8" opacity="0.48"/>
<circle cx="439.4" cy="632.4" r="0.80" fill="#cfe0ff" opacity="0.24"/>
<circle cx="1168.4" cy="749.0" r="0.80" fill="#dfe7f5" opacity="0.35"/>
<circle cx="723.6" cy="497.9" r="0.40" fill="#fff0d8" opacity="0.30"/>
<circle cx="855.8" cy="196.4" r="0.40" fill="#dfe7f5" opacity="0.49"/>
<circle cx="792.3" cy="1132.3" r="0.60" fill="#e6edf3" opacity="0.46"/>
<circle cx="1286.7" cy="302.7" r="0.60" fill="#fff0d8" opacity="0.46"/>
<circle cx="328.4" cy="885.5" r="0.40" fill="#e6edf3" opacity="0.52"/>
<circle cx="549.4" cy="84.1" r="0.80" fill="#fff0d8" opacity="0.57"/>
<circle cx="696.0" cy="391.7" r="0.50" fill="#cfe0ff" opacity="0.57"/>
<circle cx="665.3" cy="233.4" r="0.50" fill="#fff0d8" opacity="0.40"/>
<circle cx="1270.5" cy="1125.9" r="0.80" fill="#fff0d8" opacity="0.42"/>
<circle cx="980.3" cy="32.3" r="0.80" fill="#e6edf3" opacity="0.23"/>
<circle cx="1277.4" cy="380.8" r="0.80" fill="#fff0d8" opacity="0.39"/>
<circle cx="656.5" cy="455.7" r="0.60" fill="#e6edf3" opacity="0.21"/>
<circle cx="485.9" cy="1248.5" r="1.00" fill="#cfe0ff" opacity="0.30"/>
<circle cx="899.2" cy="538.2" r="0.60" fill="#fff0d8" opacity="0.58"/>
<circle cx="43.4" cy="990.2" r="0.50" fill="#e6edf3" opacity="0.50"/>
<circle cx="869.1" cy="575.3" r="0.80" fill="#e6edf3" opacity="0.21"/>
<circle cx="1161.4" cy="1231.6" r="0.80" fill="#dfe7f5" opacity="0.59"/>
<circle cx="53.4" cy="190.2" r="1.00" fill="#dfe7f5" opacity="0.29"/>
<circle cx="504.6" cy="1367.8" r="0.50" fill="#fff0d8" opacity="0.43"/>
<circle cx="319.9" cy="952.2" r="0.50" fill="#dfe7f5" opacity="0.40"/>
<circle cx="4.9" cy="765.8" r="1.00" fill="#fff0d8" opacity="0.21"/>
<circle cx="369.7" cy="145.5" r="0.40" fill="#cfe0ff" opacity="0.31"/>
<circle cx="973.5" cy="961.2" r="0.50" fill="#cfe0ff" opacity="0.53"/>
<circle cx="466.3" cy="965.0" r="1.00" fill="#dfe7f5" opacity="0.30"/>
<circle cx="400.0" cy="1048.6" r="1.00" fill="#cfe0ff" opacity="0.39"/>
<circle cx="507.1" cy="988.6" r="1.00" fill="#e6edf3" opacity="0.49"/>
<circle cx="1384.8" cy="1145.0" r="0.60" fill="#dfe7f5" opacity="0.23"/>
<circle cx="717.3" cy="951.0" r="0.40" fill="#dfe7f5" opacity="0.25"/>
<circle cx="1217.8" cy="74.8" r="0.60" fill="#dfe7f5" opacity="0.35"/>
<circle cx="354.1" cy="888.7" r="0.60" fill="#fff0d8" opacity="0.48"/>
<circle cx="257.0" cy="1198.4" r="0.50" fill="#cfe0ff" opacity="0.53"/>
<circle cx="794.5" cy="588.8" r="0.50" fill="#fff0d8" opacity="0.44"/>
<circle cx="1121.7" cy="175.3" r="0.80" fill="#fff0d8" opacity="0.44"/>
<circle cx="323.5" cy="258.5" r="0.40" fill="#cfe0ff" opacity="0.38"/>
<circle cx="375.2" cy="379.5" r="0.60" fill="#dfe7f5" opacity="0.45"/>
<circle cx="541.3" cy="951.0" r="0.50" fill="#e6edf3" opacity="0.20"/>
<circle cx="1219.1" cy="271.3" r="0.60" fill="#e6edf3" opacity="0.49"/>
<circle cx="566.4" cy="1266.6" r="1.00" fill="#cfe0ff" opacity="0.54"/>
<circle cx="522.8" cy="432.9" r="0.60" fill="#dfe7f5" opacity="0.27"/>
<circle cx="1071.5" cy="1373.4" r="0.80" fill="#cfe0ff" opacity="0.46"/>
<circle cx="764.3" cy="1120.2" r="0.50" fill="#e6edf3" opacity="0.37"/>
<circle cx="778.7" cy="1255.4" r="0.80" fill="#cfe0ff" opacity="0.36"/>
<circle cx="453.1" cy="26.9" r="1.00" fill="#fff0d8" opacity="0.42"/>
<circle cx="875.4" cy="383.6" r="0.50" fill="#cfe0ff" opacity="0.21"/>
<circle cx="512.2" cy="363.4" r="0.40" fill="#e6edf3" opacity="0.24"/>
<circle cx="1249.7" cy="433.1" r="0.40" fill="#fff0d8" opacity="0.18"/>
<circle cx="676.8" cy="1396.0" r="0.50" fill="#dfe7f5" opacity="0.60"/>
<circle cx="678.0" cy="580.4" r="1.00" fill="#e6edf3" opacity="0.35"/>
<circle cx="300.9" cy="863.4" r="1.00" fill="#cfe0ff" opacity="0.29"/>
<circle cx="1314.4" cy="1210.4" r="0.80" fill="#e6edf3" opacity="0.42"/>
<circle cx="246.2" cy="37.5" r="0.50" fill="#e6edf3" opacity="0.41"/>
<circle cx="379.4" cy="33.6" r="1.00" fill="#dfe7f5" opacity="0.31"/>
<circle cx="14.7" cy="294.2" r="0.60" fill="#fff0d8" opacity="0.18"/>
<circle cx="1134.2" cy="1109.2" r="0.80" fill="#e6edf3" opacity="0.35"/>
<circle cx="1310.6" cy="674.9" r="0.80" fill="#e6edf3" opacity="0.29"/>
<circle cx="13.3" cy="197.1" r="0.60" fill="#fff0d8" opacity="0.34"/>
<circle cx="708.6" cy="387.6" r="0.60" fill="#dfe7f5" opacity="0.44"/>
<circle cx="495.7" cy="390.9" r="0.60" fill="#fff0d8" opacity="0.43"/>
<circle cx="468.7" cy="1038.3" r="0.50" fill="#cfe0ff" opacity="0.20"/>
<circle cx="764.7" cy="952.3" r="0.50" fill="#cfe0ff" opacity="0.33"/>
<circle cx="200.1" cy="490.5" r="0.80" fill="#dfe7f5" opacity="0.19"/>
<circle cx="703.6" cy="564.7" r="0.60" fill="#cfe0ff" opacity="0.58"/>
<circle cx="29.1" cy="244.4" r="0.40" fill="#e6edf3" opacity="0.50"/>
<circle cx="810.3" cy="450.1" r="0.80" fill="#cfe0ff" opacity="0.58"/>
<circle cx="699.0" cy="1092.6" r="0.50" fill="#e6edf3" opacity="0.52"/>
<circle cx="948.1" cy="1326.8" r="0.60" fill="#fff0d8" opacity="0.55"/>
<circle cx="735.1" cy="14.1" r="0.80" fill="#e6edf3" opacity="0.56"/>
<circle cx="297.2" cy="862.8" r="0.80" fill="#dfe7f5" opacity="0.54"/>
<circle cx="706.8" cy="794.8" r="0.40" fill="#dfe7f5" opacity="0.23"/>
<circle cx="610.7" cy="654.1" r="0.80" fill="#dfe7f5" opacity="0.39"/>
<circle cx="840.9" cy="801.9" r="1.00" fill="#dfe7f5" opacity="0.57"/>
<circle cx="625.5" cy="830.7" r="1.00" fill="#fff0d8" opacity="0.20"/>
<circle cx="212.7" cy="656.2" r="0.60" fill="#fff0d8" opacity="0.49"/>
<circle cx="263.6" cy="656.5" r="1.00" fill="#cfe0ff" opacity="0.35"/>
<circle cx="1054.0" cy="1256.3" r="0.40" fill="#cfe0ff" opacity="0.28"/>
<circle cx="1161.0" cy="1116.7" r="1.00" fill="#fff0d8" opacity="0.29"/>
<circle cx="90.8" cy="1218.1" r="0.60" fill="#fff0d8" opacity="0.29"/>
<circle cx="635.7" cy="750.8" r="0.80" fill="#fff0d8" opacity="0.26"/>
<circle cx="1346.4" cy="333.9" r="0.40" fill="#dfe7f5" opacity="0.41"/>
<circle cx="1227.5" cy="101.0" r="0.80" fill="#e6edf3" opacity="0.54"/>
<circle cx="1115.5" cy="212.5" r="0.60" fill="#fff0d8" opacity="0.25"/>
<circle cx="51.5" cy="484.1" r="0.50" fill="#e6edf3" opacity="0.53"/>
<circle cx="582.4" cy="860.1" r="0.40" fill="#dfe7f5" opacity="0.54"/>
<circle cx="1262.5" cy="100.6" r="0.50" fill="#fff0d8" opacity="0.40"/>
<circle cx="1227.2" cy="1018.7" r="0.50" fill="#dfe7f5" opacity="0.42"/>
<circle cx="529.5" cy="1143.2" r="0.60" fill="#fff0d8" opacity="0.53"/>
<circle cx="921.6" cy="292.0" r="0.50" fill="#cfe0ff" opacity="0.26"/>
<circle cx="240.1" cy="812.8" r="0.40" fill="#e6edf3" opacity="0.23"/>
<circle cx="362.0" cy="481.6" r="1.00" fill="#cfe0ff" opacity="0.33"/>
<circle cx="11.3" cy="96.6" r="0.50" fill="#fff0d8" opacity="0.49"/>
<circle cx="1218.6" cy="1077.7" r="0.50" fill="#fff0d8" opacity="0.24"/>
<circle cx="594.6" cy="1148.2" r="0.80" fill="#cfe0ff" opacity="0.30"/>
<circle cx="709.1" cy="1318.3" r="0.60" fill="#dfe7f5" opacity="0.40"/>
<circle cx="329.1" cy="811.0" r="0.60" fill="#fff0d8" opacity="0.23"/>
<circle cx="1332.8" cy="109.4" r="0.80" fill="#dfe7f5" opacity="0.27"/>
<circle cx="542.7" cy="1040.6" r="1.00" fill="#e6edf3" opacity="0.27"/>
<circle cx="513.9" cy="466.6" r="1.00" fill="#fff0d8" opacity="0.37"/>
<circle cx="410.1" cy="972.9" r="1.00" fill="#dfe7f5" opacity="0.28"/>
<circle cx="524.8" cy="830.6" r="0.60" fill="#fff0d8" opacity="0.34"/>
<circle cx="478.2" cy="1148.7" r="1.00" fill="#e6edf3" opacity="0.22"/>
<circle cx="634.4" cy="292.9" r="0.60" fill="#e6edf3" opacity="0.19"/>
<circle cx="1012.3" cy="936.9" r="0.60" fill="#e6edf3" opacity="0.60"/>
<circle cx="935.2" cy="218.0" r="0.40" fill="#dfe7f5" opacity="0.33"/>
<circle cx="708.1" cy="671.5" r="1.00" fill="#cfe0ff" opacity="0.21"/>
<circle cx="1367.0" cy="1389.6" r="0.80" fill="#cfe0ff" opacity="0.36"/>
<circle cx="909.9" cy="981.5" r="0.40" fill="#dfe7f5" opacity="0.21"/>
<circle cx="918.7" cy="1106.3" r="0.50" fill="#cfe0ff" opacity="0.40"/>
<circle cx="696.3" cy="1162.5" r="1.00" fill="#e6edf3" opacity="0.35"/>
<circle cx="5.0" cy="1341.7" r="1.00" fill="#fff0d8" opacity="0.51"/>
<circle cx="928.7" cy="1357.8" r="0.80" fill="#e6edf3" opacity="0.51"/>
<circle cx="606.4" cy="218.1" r="0.60" fill="#e6edf3" opacity="0.54"/>
<circle cx="152.4" cy="578.1" r="1.00" fill="#e6edf3" opacity="0.40"/>
<circle cx="1086.7" cy="132.0" r="1.00" fill="#e6edf3" opacity="0.42"/>
<circle cx="795.0" cy="181.6" r="0.40" fill="#fff0d8" opacity="0.39"/>
<circle cx="411.6" cy="1088.5" r="0.50" fill="#dfe7f5" opacity="0.43"/>
<circle cx="76.0" cy="304.7" r="0.80" fill="#e6edf3" opacity="0.25"/>
<circle cx="643.1" cy="1191.0" r="0.40" fill="#cfe0ff" opacity="0.52"/>
<circle cx="201.5" cy="790.1" r="0.50" fill="#e6edf3" opacity="0.35"/>
<circle cx="578.7" cy="15.0" r="0.50" fill="#e6edf3" opacity="0.51"/>
<circle cx="1028.2" cy="997.7" r="0.50" fill="#e6edf3" opacity="0.30"/>
<circle cx="566.9" cy="690.8" r="1.00" fill="#e6edf3" opacity="0.45"/>
<circle cx="545.7" cy="419.3" r="0.50" fill="#e6edf3" opacity="0.29"/>
<circle cx="920.0" cy="586.9" r="0.80" fill="#cfe0ff" opacity="0.27"/>
<circle cx="795.1" cy="701.3" r="0.40" fill="#fff0d8" opacity="0.35"/>
<circle cx="374.4" cy="839.7" r="0.50" fill="#dfe7f5" opacity="0.33"/>
<circle cx="1108.4" cy="538.5" r="0.80" fill="#e6edf3" opacity="0.32"/>
<circle cx="69.4" cy="1169.9" r="0.40" fill="#dfe7f5" opacity="0.25"/>
<circle cx="766.6" cy="559.6" r="0.50" fill="#fff0d8" opacity="0.46"/>
<circle cx="45.4" cy="503.4" r="0.50" fill="#dfe7f5" opacity="0.40"/>
<circle cx="1026.4" cy="522.8" r="1.00" fill="#e6edf3" opacity="0.59"/>
<circle cx="962.6" cy="500.1" r="0.50" fill="#fff0d8" opacity="0.33"/>
<circle cx="1176.1" cy="293.7" r="1.00" fill="#cfe0ff" opacity="0.20"/>
<circle cx="696.7" cy="722.7" r="0.60" fill="#e6edf3" opacity="0.20"/>
<circle cx="298.6" cy="825.3" r="0.80" fill="#fff0d8" opacity="0.45"/>
<circle cx="563.2" cy="400.1" r="0.40" fill="#cfe0ff" opacity="0.22"/>
<circle cx="1164.2" cy="459.5" r="0.60" fill="#cfe0ff" opacity="0.24"/>
<circle cx="1103.6" cy="899.2" r="0.40" fill="#dfe7f5" opacity="0.60"/>
<circle cx="67.1" cy="874.6" r="1.00" fill="#fff0d8" opacity="0.24"/>
<circle cx="894.2" cy="31.3" r="0.50" fill="#e6edf3" opacity="0.42"/>
<circle cx="1153.3" cy="670.8" r="0.60" fill="#e6edf3" opacity="0.47"/>
<circle cx="241.5" cy="116.8" r="0.50" fill="#dfe7f5" opacity="0.34"/>
<circle cx="948.1" cy="1121.6" r="0.80" fill="#e6edf3" opacity="0.31"/>
<circle cx="1169.6" cy="1339.2" r="0.60" fill="#e6edf3" opacity="0.46"/>
<circle cx="984.2" cy="556.0" r="1.00" fill="#cfe0ff" opacity="0.23"/>
<circle cx="135.8" cy="453.8" r="0.50" fill="#e6edf3" opacity="0.53"/>
<circle cx="217.1" cy="383.6" r="0.80" fill="#dfe7f5" opacity="0.19"/>
<circle cx="1302.7" cy="280.4" r="0.80" fill="#dfe7f5" opacity="0.39"/>
<circle cx="716.1" cy="674.4" r="1.00" fill="#cfe0ff" opacity="0.49"/>
<circle cx="1082.1" cy="453.7" r="0.40" fill="#cfe0ff" opacity="0.33"/>
<circle cx="912.0" cy="527.8" r="1.00" fill="#dfe7f5" opacity="0.47"/>
<circle cx="804.0" cy="1179.2" r="7.1" fill="url(#bs)" opacity="0.40"/>
<circle cx="804.0" cy="1179.2" r="1.0" fill="#ffffff" opacity="0.9"/>
<circle cx="1372.9" cy="459.2" r="9.2" fill="url(#bs)" opacity="0.31"/>
<circle cx="1372.9" cy="459.2" r="0.9" fill="#ffffff" opacity="0.9"/>
<circle cx="1022.6" cy="805.0" r="6.5" fill="url(#bs)" opacity="0.27"/>
<circle cx="1022.6" cy="805.0" r="1.2" fill="#ffffff" opacity="0.9"/>
<circle cx="528.6" cy="1003.1" r="7.6" fill="url(#bs)" opacity="0.40"/>
<circle cx="528.6" cy="1003.1" r="1.0" fill="#ffffff" opacity="0.9"/>
<circle cx="1366.0" cy="1273.5" r="7.7" fill="url(#bs)" opacity="0.37"/>
<circle cx="1366.0" cy="1273.5" r="0.8" fill="#ffffff" opacity="0.9"/>
<circle cx="1054.4" cy="143.2" r="6.8" fill="url(#bs)" opacity="0.46"/>
<circle cx="1054.4" cy="143.2" r="0.7" fill="#ffffff" opacity="0.9"/>
<circle cx="977.9" cy="795.3" r="8.3" fill="url(#bs)" opacity="0.33"/>
<circle cx="977.9" cy="795.3" r="0.8" fill="#ffffff" opacity="0.9"/>
<circle cx="1331.2" cy="1070.6" r="9.8" fill="url(#bs)" opacity="0.27"/>
<circle cx="1331.2" cy="1070.6" r="1.2" fill="#ffffff" opacity="0.9"/>
<circle cx="305.9" cy="279.0" r="8.2" fill="url(#bs)" opacity="0.40"/>
<circle cx="305.9" cy="279.0" r="0.8" fill="#ffffff" opacity="0.9"/>
<circle cx="1070.8" cy="815.4" r="10.4" fill="url(#bs)" opacity="0.48"/>
<circle cx="1070.8" cy="815.4" r="1.1" fill="#ffffff" opacity="0.9"/>
<circle cx="509.6" cy="1331.4" r="9.3" fill="url(#bs)" opacity="0.32"/>
<circle cx="509.6" cy="1331.4" r="1.2" fill="#ffffff" opacity="0.9"/>
<circle cx="1017.6" cy="370.6" r="6.5" fill="url(#bs)" opacity="0.26"/>
<circle cx="1017.6" cy="370.6" r="1.0" fill="#ffffff" opacity="0.9"/>
<circle cx="355.0" cy="410.3" r="6.5" fill="url(#bs)" opacity="0.28"/>
<circle cx="355.0" cy="410.3" r="1.0" fill="#ffffff" opacity="0.9"/>
<circle cx="381.7" cy="399.1" r="6.7" fill="url(#bs)" opacity="0.38"/>
<circle cx="381.7" cy="399.1" r="1.2" fill="#ffffff" opacity="0.9"/>
<circle cx="224.1" cy="1203.5" r="10.1" fill="url(#bs)" opacity="0.40"/>
<circle cx="224.1" cy="1203.5" r="1.0" fill="#ffffff" opacity="0.9"/>
<circle cx="1027.5" cy="748.4" r="9.0" fill="url(#bs)" opacity="0.48"/>
<circle cx="1027.5" cy="748.4" r="1.2" fill="#ffffff" opacity="0.9"/>
<circle cx="363.8" cy="76.1" r="10.6" fill="url(#bs)" opacity="0.34"/>
<circle cx="363.8" cy="76.1" r="1.2" fill="#ffffff" opacity="0.9"/>
<circle cx="326.8" cy="634.0" r="7.2" fill="url(#bs)" opacity="0.43"/>
<circle cx="326.8" cy="634.0" r="1.3" fill="#ffffff" opacity="0.9"/>
<circle cx="707.9" cy="792.4" r="7.1" fill="url(#bs)" opacity="0.31"/>
<circle cx="707.9" cy="792.4" r="1.3" fill="#ffffff" opacity="0.9"/>
<circle cx="154.4" cy="1316.7" r="8.9" fill="url(#bs)" opacity="0.27"/>
<circle cx="154.4" cy="1316.7" r="1.2" fill="#ffffff" opacity="0.9"/>
<circle cx="142.8" cy="791.6" r="5.7" fill="url(#bs)" opacity="0.50"/>
<circle cx="142.8" cy="791.6" r="0.9" fill="#ffffff" opacity="0.9"/>
<circle cx="1221.0" cy="86.0" r="9.0" fill="url(#bs)" opacity="0.27"/>
<circle cx="1221.0" cy="86.0" r="0.7" fill="#ffffff" opacity="0.9"/>
<circle cx="799.3" cy="1375.9" r="9.1" fill="url(#bs)" opacity="0.46"/>
<circle cx="799.3" cy="1375.9" r="1.2" fill="#ffffff" opacity="0.9"/>
<circle cx="729.7" cy="108.1" r="8.2" fill="url(#bs)" opacity="0.30"/>
<circle cx="729.7" cy="108.1" r="1.0" fill="#ffffff" opacity="0.9"/>
<circle cx="495.9" cy="698.6" r="6.2" fill="url(#bs)" opacity="0.43"/>
<circle cx="495.9" cy="698.6" r="1.0" fill="#ffffff" opacity="0.9"/>
<circle cx="680.3" cy="110.2" r="7.9" fill="url(#bs)" opacity="0.39"/>
<circle cx="680.3" cy="110.2" r="1.3" fill="#ffffff" opacity="0.9"/>
<circle cx="786.0" cy="188.9" r="6.8" fill="url(#bs)" opacity="0.33"/>
<circle cx="786.0" cy="188.9" r="1.1" fill="#ffffff" opacity="0.9"/>
<circle cx="1314.4" cy="1366.4" r="10.7" fill="url(#bs)" opacity="0.48"/>
<circle cx="1314.4" cy="1366.4" r="1.2" fill="#ffffff" opacity="0.9"/>
<circle cx="1308.9" cy="28.3" r="7.9" fill="url(#bs)" opacity="0.40"/>
<circle cx="1308.9" cy="28.3" r="1.1" fill="#ffffff" opacity="0.9"/>
<circle cx="857.8" cy="858.4" r="10.6" fill="url(#bs)" opacity="0.27"/>
<circle cx="857.8" cy="858.4" r="1.0" fill="#ffffff" opacity="0.9"/>
<circle cx="1343.3" cy="44.6" r="5.7" fill="url(#bs)" opacity="0.47"/>
<circle cx="1343.3" cy="44.6" r="1.3" fill="#ffffff" opacity="0.9"/>
<circle cx="33.7" cy="44.7" r="10.0" fill="url(#bs)" opacity="0.42"/>
<circle cx="33.7" cy="44.7" r="1.0" fill="#ffffff" opacity="0.9"/>
<circle cx="812.1" cy="1060.3" r="9.8" fill="url(#bs)" opacity="0.25"/>
<circle cx="812.1" cy="1060.3" r="0.7" fill="#ffffff" opacity="0.9"/>
<circle cx="1111.8" cy="1365.6" r="10.0" fill="url(#bs)" opacity="0.35"/>
<circle cx="1111.8" cy="1365.6" r="0.9" fill="#ffffff" opacity="0.9"/>
</svg>